<svg xmlns="http://www.w3.org/2000/svg" width="64.936" height="56.815" viewBox="0 0 64.936 56.815">
  <g id="triangle" transform="translate(64.937 59.062) rotate(180)">
    <path id="Path_1" data-name="Path 1" d="M32.21,6.375a.592.592,0,0,0-.218.231L4.167,53.949a.714.714,0,0,0-.009.743.614.614,0,0,0,.218.243A.463.463,0,0,0,4.645,55H60.29a.487.487,0,0,0,.269-.069.662.662,0,0,0,.224-.243.714.714,0,0,0-.013-.743L32.949,6.606a.592.592,0,0,0-.218-.231.552.552,0,0,0-.519,0ZM36.446,4.55a4.584,4.584,0,0,0-7.953,0L.669,51.891a4.736,4.736,0,0,0,3.977,7.171H60.29a4.735,4.735,0,0,0,3.977-7.171L36.446,4.55Z" transform="translate(0)" fill="#00caca" fill-rule="evenodd"/>
  </g>
</svg>